Coordinates
version=1
nRows=29
nColumns=32
inDegrees=no

Units are S.I. units (second, meters, Newtons, ...)
If the header above contains a line with 'inDegrees', this indicates whether rotational values are in degrees (yes) or radians (no).

endheader
time	pelvis_tilt	pelvis_list	pelvis_rotation	pelvis_tx	pelvis_ty	pelvis_tz	hip_flexion_r	hip_adduction_r	hip_rotation_r	knee_angle_r	ankle_angle_r	subtalar_angle_r	mtp_angle_r	hip_flexion_l	hip_adduction_l	hip_rotation_l	knee_angle_l	ankle_angle_l	subtalar_angle_l	mtp_angle_l	lumbar_extension	lumbar_bending	lumbar_rotation	arm_flex_r	arm_add_r	arm_rot_r	elbow_flex_r	arm_flex_l	arm_add_l	arm_rot_l	elbow_flex_l
0.795	-0.0760041	0.0675069	-0.0389221	0.905413	1.01443	-0.328298	0.947113	-0.0160377	-0.0809905	0.573008	-0.219687	-0.19331	0.0363104	-0.336768	0.015152	-0.120602	0.966488	-0.379179	0.0629727	0.0525356	-0.140259	-0.0222639	-0.346255	-1.20224	-0.327905	0.0340179	1.78545	-0.402576	-0.293599	-0.0375521	2.58878
0.8	-0.0728653	0.0716979	-0.0406618	0.904542	1.01554	-0.328167	0.911065	-0.0160278	-0.0926594	0.500311	-0.223156	-0.141895	0.0364031	-0.31588	0.0145683	-0.116893	1.04817	-0.369273	0.0564392	0.0525366	-0.147241	-0.0256208	-0.343578	-1.18643	-0.320358	0.0420738	1.7788	-0.420869	-0.290015	-0.0383911	2.57132
0.805	-0.0698441	0.0747784	-0.0427036	0.903612	1.01647	-0.328013	0.876487	-0.0152016	-0.107163	0.436189	-0.227168	-0.0915092	0.0364959	-0.293548	0.0125352	-0.115471	1.12987	-0.357613	0.048991	0.0525375	-0.154387	-0.0277943	-0.340208	-1.16779	-0.312986	0.0503023	1.77129	-0.440202	-0.285137	-0.0397593	2.55099
0.81	-0.0671935	0.0765878	-0.0447802	0.902623	1.01721	-0.327868	0.844079	-0.0137355	-0.124627	0.381585	-0.232149	-0.0436712	0.0365887	-0.269482	0.00878454	-0.115527	1.21144	-0.344023	0.0401169	0.0525383	-0.161379	-0.0285283	-0.336254	-1.14663	-0.305734	0.0585726	1.76308	-0.460143	-0.279054	-0.0415915	2.52787
0.815	-0.0651148	0.077074	-0.0466606	0.901571	1.01775	-0.327761	0.814338	-0.0118619	-0.144946	0.337089	-0.238348	7.70915e-05	0.0366815	-0.243425	0.00319773	-0.116319	1.29274	-0.328614	0.0295098	0.0525391	-0.167951	-0.0276992	-0.331804	-1.12322	-0.298555	0.0668095	1.75428	-0.480276	-0.271902	-0.0438154	2.50204
0.82	-0.0637318	0.0762746	-0.0481858	0.900458	1.01809	-0.327713	0.787505	-0.0098128	-0.167696	0.302864	-0.245858	0.038325	0.0367743	-0.215204	-0.00420591	-0.117204	1.37363	-0.31169	0.0171176	0.0525398	-0.173918	-0.0253008	-0.326896	-1.09783	-0.29142	0.074983	1.74498	-0.500224	-0.263848	-0.0463503	2.47356
0.825	-0.0630678	0.0742746	-0.0492871	0.899292	1.01823	-0.327731	0.763527	-0.00775346	-0.192068	0.278617	-0.254678	0.0699154	0.0368671	-0.184763	-0.0133187	-0.117664	1.45388	-0.293645	0.00318959	0.0525405	-0.179208	-0.0214001	-0.321507	-1.07066	-0.284335	0.0830927	1.73528	-0.519651	-0.25508	-0.0491036	2.44249
0.83	-0.0630318	0.0711623	-0.0499832	0.898081	1.01818	-0.327814	0.742066	-0.00573674	-0.216886	0.263648	-0.264731	0.0940559	0.0369599	-0.152185	-0.0240023	-0.117299	1.53321	-0.274863	-0.0117037	0.0525411	-0.183881	-0.0160871	-0.315547	-1.04189	-0.277335	0.0911474	1.72527	-0.538265	-0.2458	-0.0519715	2.40887
0.835	-0.063422	0.067002	-0.0503658	0.896842	1.01795	-0.327949	0.722544	-0.00368761	-0.240701	0.256966	-0.2758	0.110388	0.0370527	-0.117693	-0.0361293	-0.115812	1.61127	-0.255656	-0.0267048	0.0525416	-0.188136	-0.00944245	-0.308868	-1.01166	-0.270482	0.0991474	1.71505	-0.555809	-0.236209	-0.0548353	2.37277
0.84	-0.063954	0.0618322	-0.0505806	0.895593	1.01757	-0.328118	0.704247	-0.00141495	-0.261949	0.257461	-0.287404	0.119008	0.0371456	-0.0816145	-0.0496014	-0.11299	1.68765	-0.236239	-0.0407766	0.0525421	-0.192276	-0.00152691	-0.301269	-0.980094	-0.263858	0.107072	1.7048	-0.572074	-0.226507	-0.0575559	2.33424
0.845	-0.0643122	0.0556765	-0.0508076	0.894357	1.01706	-0.3283	0.686446	0.00135512	-0.279146	0.264067	-0.29863	0.120449	0.0372384	-0.0443204	-0.0643457	-0.108677	1.76194	-0.216737	-0.0528726	0.0525426	-0.196649	0.00761129	-0.292515	-0.947316	-0.257562	0.114877	1.6947	-0.586905	-0.216877	-0.059971	2.29336
0.85	-0.0642155	0.0485594	-0.0512441	0.893155	1.01642	-0.328477	0.668535	0.0049343	-0.291088	0.275916	-0.30799	0.115607	0.0373312	-0.00613785	-0.0802926	-0.102757	1.83374	-0.197191	-0.062098	0.052543	-0.201573	0.0179202	-0.28235	-0.913446	-0.251712	0.122503	1.68497	-0.600202	-0.207475	-0.0619007	2.25025
0.855	-0.0634788	0.0405205	-0.0520845	0.892009	1.01566	-0.328631	0.650127	0.00962308	-0.297034	0.292416	-0.313353	0.105657	0.037424	0.0327274	-0.0973478	-0.0951355	1.90268	-0.177576	-0.0678245	0.0525433	-0.207265	0.0293286	-0.270531	-0.878613	-0.246447	0.129889	1.6759	-0.611932	-0.198428	-0.0631667	2.2051
0.86	-0.0620487	0.0316269	-0.0535014	0.890934	1.01474	-0.32875	0.631095	0.0156658	-0.296821	0.313275	-0.312033	0.0919402	0.0375169	0.0722401	-0.115371	-0.0857359	1.96846	-0.157814	-0.0697533	0.0525436	-0.213802	0.0417313	-0.256846	-0.842961	-0.241922	0.136986	1.66779	-0.622128	-0.189841	-0.0636198	2.15823
0.865	-0.0600069	0.0219845	-0.0556275	0.889936	1.01364	-0.328826	0.61155	0.0232091	-0.290893	0.338416	-0.301072	0.0758573	0.0376097	0.112542	-0.134164	-0.074499	2.03081	-0.137801	-0.067922	0.0525438	-0.221123	0.0549759	-0.241134	-0.806644	-0.238292	0.143758	1.66097	-0.630899	-0.18181	-0.0631726	2.11009
0.87	-0.0575439	0.0117507	-0.0585395	0.889011	1.01228	-0.328854	0.591761	0.0322635	-0.280262	0.367839	-0.277767	0.0587691	0.0377026	0.153921	-0.153459	-0.0613877	2.08948	-0.117439	-0.0626599	0.052544	-0.229055	0.0688489	-0.223308	-0.769837	-0.235696	0.150187	1.65584	-0.638427	-0.174442	-0.0618177	2.06132
0.875	-0.0549087	0.00114688	-0.0622486	0.888135	1.01063	-0.328842	0.572022	0.042675	-0.266371	0.401424	-0.240366	0.0418774	0.0377954	0.196737	-0.172904	-0.0464025	2.14419	-0.0966871	-0.0545567	0.0525442	-0.237362	0.0830588	-0.203368	-0.732744	-0.234234	0.156259	1.65281	-0.644965	-0.167873	-0.0596248	2.01274
0.88	-0.0523444	-0.00953972	-0.0667076	0.887275	1.00866	-0.328802	0.552527	0.054136	-0.250864	0.438737	-0.188784	0.0260186	0.0378882	0.241331	-0.192078	-0.0296154	2.19463	-0.0756108	-0.0444249	0.0525443	-0.245803	0.0972251	-0.181389	-0.695604	-0.233947	0.161956	1.65232	-0.65083	-0.162288	-0.0567177	1.96534
0.885	-0.0500322	-0.0199798	-0.0718381	0.886391	1.00639	-0.328741	0.533266	0.0662571	-0.235236	0.478919	-0.125026	0.0114177	0.0379811	0.287926	-0.21053	-0.0112189	2.24038	-0.054398	-0.0332299	0.0525443	-0.254182	0.110895	-0.157492	-0.658693	-0.234798	0.167253	1.65478	-0.656371	-0.157932	-0.0532402	1.92021
0.89	-0.0480684	-0.0298592	-0.0775562	0.88545	1.00386	-0.328657	0.514004	0.0786676	-0.220499	0.520684	-0.0530012	-0.00236854	0.0380739	0.336578	-0.227854	0.0084413	2.28097	-0.0333458	-0.0219883	0.0525443	-0.262363	0.123594	-0.131811	-0.622309	-0.236669	0.172108	1.66053	-0.66194	-0.155102	-0.0493217	1.87847
0.895	-0.0464945	-0.0389214	-0.0837783	0.884436	1.00115	-0.328537	0.494333	0.0910651	-0.207031	0.562455	0.022297	-0.0161553	0.0381668	0.387203	-0.243731	0.0288703	2.31583	-0.0128244	-0.0116806	0.0525443	-0.270226	0.134875	-0.104499	-0.586765	-0.239374	0.176472	1.66979	-0.66787	-0.154114	-0.0450585	1.84113
0.9	-0.0453682	-0.0469511	-0.0903939	0.883358	0.998349	-0.328358	0.473784	0.103165	-0.194664	0.602568	0.0958944	-0.0306597	0.0382596	0.439649	-0.257892	0.0494581	2.34446	0.00677254	-0.00317697	0.0525442	-0.27757	0.144334	-0.0757886	-0.552383	-0.242684	0.180306	1.68263	-0.674487	-0.155253	-0.0405204	1.80903
0.905	-0.0448354	-0.0537245	-0.097231	0.882243	0.995543	-0.328093	0.451943	0.1146	-0.182908	0.639469	0.163731	-0.0461496	0.0383525	0.493776	-0.270025	0.0695193	2.36637	0.0250815	0.00283572	0.052544	-0.284009	0.151598	-0.046063	-0.519496	-0.24636	0.183598	1.69893	-0.682123	-0.158727	-0.0357769	1.78278
0.91	-0.0451586	-0.0589748	-0.10403	0.881134	0.99281	-0.32772	0.428545	0.124855	-0.171196	0.671852	0.223094	-0.0623335	0.0384453	0.549486	-0.279717	0.0883375	2.38122	0.0418237	0.00593108	0.0525438	-0.288937	0.156325	-0.0159051	-0.488442	-0.250192	0.186384	1.71846	-0.691131	-0.164615	-0.0309256	1.76274
0.915	-0.0466721	-0.0623939	-0.110432	0.880079	0.9902	-0.327235	0.403473	0.133263	-0.159099	0.698722	0.272611	-0.0784588	0.0385382	0.606675	-0.286434	0.10521	2.38882	0.0568397	0.00598	0.0525436	-0.291589	0.158226	0.0139046	-0.459549	-0.254022	0.188739	1.74085	-0.701868	-0.172845	-0.0261125	1.749
0.92	-0.0496802	-0.0636663	-0.11598	0.879136	0.987749	-0.326659	0.37667	0.139071	-0.146499	0.719379	0.311964	-0.0934872	0.038631	0.66513	-0.289564	0.119489	2.38912	0.0700921	0.00312977	0.0525433	-0.291202	0.157104	0.0424434	-0.433116	-0.25775	0.190763	1.7657	-0.714655	-0.183195	-0.0215316	1.74139
0.925	-0.0543447	-0.0625187	-0.120148	0.87837	0.985492	-0.326037	0.348028	0.141533	-0.133705	0.733356	0.34148	-0.106267	0.0387239	0.724407	-0.288496	0.130619	2.38219	0.0816496	-0.00224151	0.052543	-0.287197	0.152879	0.0687463	-0.409388	-0.261338	0.192545	1.79262	-0.72973	-0.195327	-0.0174068	1.73956
0.93	-0.0606073	-0.0587654	-0.122396	0.87785	0.983473	-0.325436	0.317301	0.140034	-0.121444	0.740343	0.361686	-0.115707	0.0388167	0.783775	-0.282714	0.138169	2.3682	0.0916634	-0.0095625	0.0525426	-0.27933	0.145596	0.0919252	-0.388538	-0.26479	0.194151	1.82126	-0.747204	-0.208831	-0.0139708	1.743
0.935	-0.0681673	-0.0523363	-0.122237	0.87764	0.981742	-0.324929	0.28409	0.134188	-0.110782	0.740141	0.372955	-0.12093	0.0389096	0.842217	-0.271891	0.141851	2.34742	0.100329	-0.0181342	0.0525422	-0.267771	0.135398	0.111277	-0.370644	-0.268144	0.195626	1.85138	-0.767041	-0.223272	-0.0114542	1.75113
